<svg data-v-423bf9ae="" xmlns="http://www.w3.org/2000/svg" viewBox="0 0 221.92699284328333 60" class="font"><!----><!----><!----><g data-v-423bf9ae="" id="56769b1f-7668-43b4-9d59-23456fcb9869" fill="white" transform="matrix(6.08519290965367,0,0,6.08519290965367,-8.27586611469853,-23.853957146942918)"><path d="M5.07 3.99C4.62 3.93 4.20 3.92 3.71 3.92L1.36 3.92L1.36 13.58L1.89 13.58L1.89 9.35L3.71 9.35C4.20 9.35 4.62 9.35 5.07 9.30C6.40 9.11 7.45 8.26 7.45 6.58C7.45 4.94 6.43 4.16 5.07 3.99ZM5.01 8.82C4.61 8.88 4.23 8.89 3.74 8.89L1.89 8.89L1.89 4.40L3.74 4.40C4.23 4.40 4.61 4.41 5.01 4.47C6.06 4.61 6.87 5.22 6.87 6.58C6.87 8.01 6.06 8.67 5.01 8.82ZM10.99 6.01C10.39 6.01 9.86 6.30 9.49 6.80L9.10 7.70L9.10 6.20L8.57 6.20L8.57 13.58L9.10 13.58L9.10 9.49C9.10 7.25 10.04 6.38 11.37 6.48L11.37 6.05C11.26 6.02 11.13 6.01 10.99 6.01ZM15.27 6.01C13.09 6.01 11.76 7.62 11.76 9.90C11.76 12.17 13.09 13.78 15.27 13.78C17.46 13.78 18.79 12.17 18.79 9.90C18.79 7.62 17.46 6.01 15.27 6.01ZM15.27 13.33C13.71 13.33 12.35 12.18 12.35 9.90C12.35 7.60 13.71 6.45 15.27 6.45C16.84 6.45 18.21 7.60 18.21 9.90C18.21 12.18 16.84 13.33 15.27 13.33ZM25.86 8.25C25.72 6.85 24.82 6.01 23.30 6.01C22.43 6.01 21.64 6.31 21.08 7.01L20.75 7.78L20.75 6.20L20.22 6.20L20.22 13.58L20.75 13.58L20.75 9.49C20.75 7.38 21.94 6.47 23.24 6.47C24.57 6.47 25.20 7.25 25.33 8.40C25.37 8.78 25.38 9.10 25.38 9.59L25.38 13.58L25.91 13.58L25.91 9.46C25.91 8.86 25.90 8.62 25.86 8.25ZM28.67 12.43C28.66 12.24 28.66 12.05 28.66 11.69L28.66 6.68L30.09 6.68L30.09 6.26L28.66 6.26L28.66 4.69L28.13 4.69L28.13 6.26L27.22 6.26L27.22 6.68L28.13 6.68L28.13 11.66C28.13 12.08 28.13 12.33 28.15 12.64C28.21 13.36 28.59 13.68 29.32 13.68C29.58 13.68 29.88 13.66 30.10 13.64L30.10 13.22C29.05 13.37 28.73 13.16 28.67 12.43ZM34.31 6.01C32.13 6.01 30.80 7.62 30.80 9.90C30.80 12.17 32.13 13.78 34.31 13.78C36.50 13.78 37.83 12.17 37.83 9.90C37.83 7.62 36.50 6.01 34.31 6.01ZM34.31 13.33C32.75 13.33 31.39 12.18 31.39 9.90C31.39 7.60 32.75 6.45 34.31 6.45C35.88 6.45 37.25 7.60 37.25 9.90C37.25 12.18 35.88 13.33 34.31 13.33Z"></path></g><!----><!----></svg>