<svg id="visual" viewBox="0 0 900 450" width="900" height="450" xmlns="http://www.w3.org/2000/svg" xmlns:xlink="http://www.w3.org/1999/xlink" version="1.1"><path d="M0 364L21.5 371.5C43 379 86 394 128.8 401.3C171.7 408.7 214.3 408.3 257.2 404C300 399.7 343 391.3 385.8 387.5C428.7 383.7 471.3 384.3 514.2 384.5C557 384.7 600 384.3 642.8 384C685.7 383.7 728.3 383.3 771.2 380C814 376.7 857 370.3 878.5 367.2L900 364L900 451L878.5 451C857 451 814 451 771.2 451C728.3 451 685.7 451 642.8 451C600 451 557 451 514.2 451C471.3 451 428.7 451 385.8 451C343 451 300 451 257.2 451C214.3 451 171.7 451 128.8 451C86 451 43 451 21.5 451L0 451Z" fill="#ffffff" stroke-linecap="round" stroke-linejoin="miter"></path></svg>