<svg width="150" height="150" viewBox="0 0 150 150" fill="none" xmlns="http://www.w3.org/2000/svg">
<path d="M140.783 31.4591L84.2169 2.21161C81.4146 0.76276 78.2358 0 75 0C71.7642 0 68.5854 0.76276 65.7831 2.21161L9.21687 31.4591C6.41466 32.9079 4.08767 34.9917 2.46977 37.5011C0.851876 40.0105 8.22001e-05 42.8571 0 45.7547V104.25C0.000378101 107.148 0.852273 109.994 2.47012 112.504C4.08796 115.014 6.41479 117.098 9.21687 118.547L65.7831 147.789C68.5855 149.237 71.7642 150 75 150C78.2357 150 81.4145 149.237 84.2169 147.789L140.783 118.545C146.486 115.595 150 110.147 150 104.248V45.7547C149.999 42.8572 149.147 40.0108 147.53 37.5015C145.912 34.9921 143.585 32.9082 140.783 31.4591V31.4591ZM75 16.5073L122.349 40.9902L75.0046 65.469L27.6506 40.9902L75 16.5073ZM18.4337 104.25V55.2859L65.7831 79.7668V128.729L18.4337 104.25ZM84.2169 128.726V79.7688L131.566 55.29V104.252L84.2169 128.726Z" fill="url(#paint0_linear_1:2)"/>
<defs>
<linearGradient id="paint0_linear_1:2" x1="-17.063" y1="12.5787" x2="113.14" y2="80.3773" gradientUnits="userSpaceOnUse">
<stop stop-color="#67635D"/>
<stop offset="1" stop-color="#FFD6AD"/>
</linearGradient>
</defs>
</svg>
